<?xml version="1.0" standalone="no"?>
<!DOCTYPE svg PUBLIC "-//W3C//DTD SVG 20010904//EN"
 "http://www.w3.org/TR/2001/REC-SVG-20010904/DTD/svg10.dtd">
<svg version="1.0" xmlns="http://www.w3.org/2000/svg"
 width="800.000000pt" height="800.000000pt" viewBox="0 0 800.000000 800.000000"
 preserveAspectRatio="xMidYMid meet">

<g transform="translate(0.000000,800.000000) scale(0.100000,-0.100000)"
fill="#000000" stroke="none">
<path d="M3629 7870 c-697 -63 -1350 -336 -1996 -837 -436 -338 -810 -807
-1054 -1320 -74 -156 -214 -508 -262 -658 -43 -133 -101 -367 -121 -490 -23
-137 -46 -405 -46 -535 0 -361 93 -896 220 -1265 227 -659 661 -1316 1140
-1726 307 -263 742 -522 1106 -658 454 -169 1029 -264 1609 -264 547 -1 1042
137 1589 441 559 310 937 637 1305 1129 492 657 721 1338 721 2145 0 184 -3
208 -26 208 -24 0 -31 -39 -37 -220 -18 -502 -147 -996 -392 -1495 -186 -380
-401 -672 -732 -995 -345 -337 -723 -590 -1152 -770 -397 -167 -772 -240
-1328 -260 -832 -29 -1301 84 -1943 468 -313 187 -545 366 -791 612 -636 633
-992 1362 -1101 2250 -18 143 -17 691 0 830 56 434 142 732 321 1105 291 604
695 1107 1151 1430 144 102 178 115 50 20 -280 -209 -539 -492 -788 -863 -184
-272 -291 -454 -372 -632 -151 -329 -220 -581 -272 -990 -18 -143 -18 -765 0
-915 30 -251 77 -477 138 -672 172 -551 556 -1154 1020 -1602 157 -152 256
-233 414 -340 464 -314 959 -507 1503 -586 316 -45 803 -46 1097 -2 383 58
672 148 1005 312 405 199 704 413 1016 724 255 255 413 472 562 771 207 414
388 953 443 1315 33 216 23 398 -23 412 -21 7 -31 -30 -53 -183 -47 -337 -115
-594 -247 -929 -192 -487 -436 -871 -783 -1229 -402 -414 -857 -694 -1438
-885 -687 -225 -1294 -213 -2072 43 -521 171 -966 440 -1363 826 -325 314
-566 665 -748 1085 -130 302 -201 582 -245 960 -23 206 -23 601 0 785 57 449
184 870 375 1245 76 149 260 429 387 590 124 156 405 433 545 538 642 479
1520 759 2222 708 282 -20 566 -73 872 -162 552 -161 1070 -477 1485 -905 502
-519 838 -1219 955 -1994 41 -277 66 -360 106 -360 12 0 28 -8 35 -17 10 -14
17 -16 30 -7 32 19 37 70 25 294 -35 637 -166 1104 -450 1599 -180 314 -359
548 -612 800 -430 428 -903 717 -1529 936 -156 54 -330 104 -450 130 -221 46
-330 57 -630 60 -162 2 -338 0 -391 -5z"/>
<path d="M3310 5633 c-309 -30 -555 -138 -746 -329 -133 -133 -217 -272 -280
-461 -51 -150 -54 -199 -19 -259 36 -61 151 -174 208 -204 69 -37 77 -28 77
84 0 262 74 569 174 719 45 68 129 148 185 177 77 39 187 62 301 62 177 0 340
-34 721 -150 91 -28 207 -59 257 -68 79 -15 93 -16 112 -3 32 22 205 409 189
423 -2 2 -59 -1 -127 -6 -94 -8 -193 -6 -410 6 -257 15 -546 19 -642 9z"/>
<path d="M5403 5615 c-211 -54 -390 -191 -478 -365 -43 -84 -59 -158 -59 -265
1 -120 21 -189 87 -302 65 -109 130 -188 312 -376 186 -191 270 -299 330 -422
74 -150 89 -252 60 -401 -51 -265 -271 -456 -525 -457 -186 0 -299 91 -331
265 -10 57 -10 80 5 155 23 122 65 204 145 284 78 78 175 131 276 152 l68 13
-38 43 c-49 54 -138 106 -238 139 l-79 26 -77 -39 c-53 -28 -98 -62 -151 -115
-113 -113 -166 -230 -189 -416 -32 -262 77 -478 294 -584 112 -55 180 -71 330
-77 108 -4 148 -1 235 17 321 66 578 271 664 530 36 108 50 248 36 352 -33
239 -139 418 -443 746 -166 177 -250 285 -297 377 -84 166 -56 360 71 487 71
71 143 101 252 106 120 6 200 -16 262 -70 83 -73 111 -167 82 -269 -41 -140
-176 -205 -307 -148 -27 12 -56 19 -64 16 -38 -15 -46 -180 -12 -246 18 -35
25 -37 129 -52 268 -39 477 144 477 416 0 237 -173 437 -425 490 -111 23 -291
19 -402 -10z"/>
<path d="M3146 5318 c-43 -4 -102 -14 -132 -23 l-54 -15 -30 -98 c-37 -120
-137 -527 -188 -767 -45 -209 -28 -192 -195 -194 l-98 -1 3 -77 3 -78 105 -8
c57 -4 105 -9 106 -10 1 -1 -20 -112 -46 -247 -45 -229 -104 -584 -132 -799
-11 -88 -11 -94 7 -107 23 -17 152 -19 242 -3 52 9 64 15 68 33 2 11 21 104
40 206 20 102 72 346 116 543 43 197 79 360 79 362 0 3 78 5 174 5 224 0 376
15 394 38 23 30 54 145 59 220 3 39 3 72 0 72 -4 0 -29 -9 -57 -20 -77 -30
-501 -102 -516 -88 -13 14 202 787 260 933 20 49 36 93 36 96 0 21 -142 36
-244 27z"/>
</g>
</svg>
